# xmcd
#
# Track frame offsets:
#	150
#	18474
#	39529
#	60974
#	81471
#	100687
#	115528
#	134298
#	151284
#	175125
#	187207
#
# Disc length: 2712 seconds
#
# Revision: 1
# Processed by: cddbd v1.5.1PL2 Copyright (c) Steve Scherf et al.
# Submitted via: audiograbber 1.83.01
#
DISCID=870a960b
DTITLE=Jon Kott - Texas Sun
DYEAR=1900
DGENRE=Southern Rock
TTITLE0=Perfect One
TTITLE1=Texas Sun
TTITLE2=Hothouse
TTITLE3=400 Miles
TTITLE4=Survive
TTITLE5=God Forsaken Town
TTITLE6=She's Gold
TTITLE7=Got a Feeling
TTITLE8=Window Pane
TTITLE9=Rodeo King
TTITLE10=Tonight
EXTD=
EXTT0=
EXTT1=
EXTT2=
EXTT3=
EXTT4=
EXTT5=
EXTT6=
EXTT7=
EXTT8=
EXTT9=
EXTT10=
PLAYORDER=
